# xmcd
#
# Track frame offsets: 
#        150
#        25117
#        41476
#        70690
#        90736
#        104959
#        127141
#        152531
#        178578
#        196919
#        222124
#        242778
#        279013
#
# Disc length: 3902 seconds
#
# Revision: 0
# Processed by: cddbd v1.5.2PL0 Copyright (c) Steve Scherf et al.
# Submitted via: ExactAudioCopy v0.99pb5
#
DISCID=b10f3c0d
DTITLE=Zdrowa Woda - Live
DYEAR=1900
DGENRE=Blues
TTITLE0=Piwo
TTITLE1=Wino
TTITLE2=Balanga
TTITLE3=Twój szept
TTITLE4=Hustanga
TTITLE5=Czestochowa '77
TTITLE6=Nie boj sie milosci
TTITLE7=Lina
TTITLE8=Miedzy mezczyzna a kobieta
TTITLE9=Wszystko zmienne jest
TTITLE10=Dziwne mysli
TTITLE11=Nie opuszczaj tego miasta 
TTITLE12=Ulicznik-Bonus
EXTD=
EXTT0=
EXTT1=
EXTT2=
EXTT3=
EXTT4=
EXTT5=
EXTT6=
EXTT7=
EXTT8=
EXTT9=
EXTT10=
EXTT11=
EXTT12=
PLAYORDER=
